<svg width="31" height="41" viewBox="0 0 31 41" fill="none" xmlns="http://www.w3.org/2000/svg">
<path fill-rule="evenodd" clip-rule="evenodd" d="M3.79882e-06 6.50793C3.79882e-06 4.78192 0.680428 3.12659 1.8916 1.90613C3.10279 0.685654 4.74548 0 6.45834 0H29.0625C29.5763 0 30.0692 0.205696 30.4324 0.571839C30.7959 0.93798 31 1.43458 31 1.95238V34.492C31 35.0098 30.7959 35.5065 30.4324 35.8725C30.0692 36.2387 29.5763 36.4444 29.0625 36.4444H22.6042C22.0903 36.4444 21.5974 36.2387 21.2342 35.8725C20.8708 35.5065 20.6667 35.0098 20.6667 34.492C20.6667 33.9742 20.8708 33.4776 21.2342 33.1116C21.5974 32.7453 22.0903 32.5396 22.6042 32.5396H27.125V27.3333H6.45834C5.94963 27.3333 5.45228 27.4848 5.02864 27.7685C4.60498 28.0523 4.27392 28.4558 4.07692 28.9285C3.87994 29.401 3.82582 29.9216 3.92132 30.4253C4.01683 30.9288 4.25775 31.3927 4.61384 31.7587C4.97354 32.1289 5.17261 32.6276 5.16729 33.1457C5.16197 33.6637 4.95267 34.1583 4.58542 34.5206C4.2182 34.883 3.7231 35.0837 3.20907 35.0782C2.69507 35.073 2.20421 34.8622 1.8445 34.492C0.660588 33.2761 -0.00183037 31.64 3.79882e-06 29.9365V6.50793ZM27.125 3.90476V23.4285H6.45834C5.53867 23.4285 4.6655 23.6212 3.875 23.97V6.50793C3.875 5.81751 4.14718 5.1554 4.63164 4.6672C5.11611 4.17903 5.77318 3.90476 6.45834 3.90476H27.125ZM7.75 31.8888V40.3491C7.75 40.4699 7.78341 40.5884 7.84646 40.6912C7.90952 40.794 7.99973 40.8771 8.10702 40.9312C8.21428 40.9854 8.33438 41.0083 8.45383 40.9973C8.57329 40.9864 8.68739 40.9424 8.78334 40.8698L12.5292 38.0401C12.641 37.9555 12.7769 37.91 12.9167 37.91C13.0564 37.91 13.1924 37.9555 13.3042 38.0401L17.05 40.8698C17.1459 40.9424 17.2601 40.9864 17.3795 40.9973C17.499 41.0083 17.6191 40.9854 17.7263 40.9312C17.8336 40.8771 17.9238 40.794 17.9869 40.6912C18.0499 40.5884 18.0833 40.4699 18.0833 40.3491V31.8888C18.0833 31.7163 18.0153 31.5507 17.8942 31.4286C17.7731 31.3065 17.6088 31.2381 17.4375 31.2381H8.39584C8.22456 31.2381 8.06029 31.3065 7.93915 31.4286C7.81805 31.5507 7.75 31.7163 7.75 31.8888Z" fill="#57606A"/>
</svg>
